<svg width="1024" height="1024" viewBox="0 0 1024 1024" fill="none" xmlns="http://www.w3.org/2000/svg">
<path d="M486.204 629.747C502.979 633.57 520.379 633.744 537.227 630.258C554.076 626.772 569.978 619.707 583.859 609.542C597.741 599.377 609.276 586.348 617.685 571.338C626.094 556.328 631.18 539.687 632.6 522.54C633.309 515.39 636.559 508.73 641.759 503.771C646.125 499.519 651.681 496.696 657.689 495.677C663.698 494.658 669.874 495.491 675.398 498.065C680.921 500.64 685.531 504.834 688.614 510.091C691.698 515.347 693.109 521.418 692.66 527.495C692.66 530.598 692.31 533.651 691.609 536.654C687.097 569.896 673.395 601.217 652.046 627.093C630.697 652.968 602.547 672.37 570.768 683.113C538.989 693.856 504.841 695.514 472.171 687.9C439.5 680.286 409.604 663.703 385.848 640.017C362.092 616.332 345.42 586.485 337.71 553.837C329.999 521.189 331.556 487.036 342.205 455.225C352.854 423.414 372.172 395.208 397.985 373.782C423.797 352.356 455.078 338.562 488.306 333.952L497.465 332.3C503.495 331.885 509.511 333.299 514.724 336.358C519.938 339.417 524.107 343.979 526.686 349.445C529.266 354.912 530.135 361.03 529.181 366.999C528.227 372.968 525.494 378.51 521.339 382.901C516.38 388.101 509.721 391.351 502.57 392.06C485.639 393.455 469.196 398.425 454.327 406.643C439.459 414.861 426.502 426.14 416.314 439.734C406.125 453.329 398.936 468.929 395.221 485.507C391.506 502.084 391.35 519.261 394.762 535.904C398.933 558.87 409.864 580.07 426.154 596.788C442.444 613.506 463.353 624.982 486.204 629.747Z" fill="#3B8CE2"/>
<path d="M745.362 399.717C748.911 396.118 753.31 393.473 758.152 392.026C762.995 390.579 768.124 390.378 773.065 391.441C778.006 392.504 782.598 394.797 786.417 398.107C790.236 401.418 793.158 405.638 794.912 410.378C818.157 474.606 818.812 544.84 796.768 609.49C774.723 674.14 731.298 729.343 673.657 765.991C616.016 802.639 547.603 818.541 479.708 811.074C411.812 803.607 348.491 773.217 300.192 724.918C251.893 676.619 221.503 613.298 214.036 545.402C206.569 477.507 222.471 409.094 259.119 351.453C295.767 293.812 350.971 250.387 415.621 228.343C480.271 206.299 550.504 206.953 614.732 230.198C619.483 231.935 623.719 234.845 627.045 238.656C630.372 242.468 632.681 247.058 633.76 252.001C634.838 256.943 634.65 262.078 633.214 266.929C631.777 271.78 629.139 276.189 625.543 279.748C621.533 283.75 616.473 286.537 610.946 287.786C605.42 289.034 599.653 288.694 594.312 286.805C557.744 273.448 518.456 269.271 479.897 274.643C435.533 280.642 393.728 298.919 359.197 327.411C324.667 355.903 298.784 393.476 284.468 435.894C270.153 478.311 267.974 523.885 278.179 567.474C288.383 611.064 310.564 650.935 342.219 682.591C373.875 714.246 413.746 736.427 457.336 746.631C500.925 756.835 546.499 754.657 588.916 740.342C631.333 726.026 668.907 700.143 697.399 665.612C725.891 631.082 744.167 589.277 750.167 544.913C755.368 506.477 751.089 467.352 737.705 430.949C735.889 425.552 735.645 419.751 737.001 414.222C738.357 408.692 741.257 403.662 745.362 399.717Z" fill="#3B8CE2"/>
<path d="M546.715 931.549C481.669 936.881 416.275 926.997 355.711 902.678C295.147 878.36 241.076 840.276 197.78 791.441C154.484 742.606 123.151 684.362 106.264 621.321C89.3764 558.28 87.3975 492.173 100.484 428.234C113.57 364.296 141.362 304.282 181.66 252.945C221.957 201.608 273.653 160.357 332.654 132.46C391.655 104.562 456.34 90.7837 521.589 92.2155C586.837 93.6473 650.856 110.25 708.576 140.709C712.775 142.873 716.404 145.997 719.169 149.827C721.933 153.657 723.755 158.085 724.487 162.752C725.218 167.419 724.839 172.192 723.379 176.685C721.918 181.177 719.419 185.262 716.084 188.607C711.588 193.065 705.799 195.988 699.543 196.959C693.287 197.929 686.884 196.898 681.249 194.012C604.981 153.69 516.779 142.068 432.669 161.256C348.56 180.445 274.125 229.171 222.891 298.581C171.657 367.991 147.024 453.478 153.468 539.507C159.913 625.537 197.006 706.4 258.009 767.402C319.011 828.405 399.874 865.499 485.904 871.943C571.933 878.387 657.42 853.754 726.83 802.52C796.24 751.286 844.966 676.851 864.155 592.742C883.343 508.632 871.721 420.43 831.399 344.162C828.513 338.527 827.482 332.124 828.452 325.868C829.423 319.612 832.346 313.823 836.804 309.327C840.149 305.992 844.234 303.492 848.726 302.032C853.218 300.572 857.992 300.192 862.659 300.924C867.325 301.655 871.754 303.477 875.584 306.242C879.414 309.007 882.538 312.636 884.702 316.835C917.237 378.337 934 446.953 933.486 516.529C932.973 586.105 915.199 654.466 881.76 715.482C848.32 776.497 800.26 828.26 741.889 866.127C683.519 903.995 616.662 926.784 547.315 932.45L546.715 931.549Z" fill="#3B8CE2"/>
<path d="M871.038 253.622C865.131 259.545 858.109 264.24 850.377 267.435C842.646 270.631 834.359 272.264 825.993 272.24C806.12 272.244 787.06 280.128 772.99 294.162L532.75 534.402C529.816 537.339 526.304 539.635 522.437 541.146C518.57 542.657 514.431 543.35 510.283 543.181C506.135 543.011 502.067 541.984 498.336 540.163C494.604 538.341 491.292 535.766 488.606 532.6C483.799 526.47 481.444 518.771 481.999 511C482.554 503.229 485.979 495.943 491.609 490.558L730.798 251.67C744.832 237.6 752.716 218.539 752.72 198.667C752.696 190.301 754.329 182.013 757.525 174.282C760.72 166.551 765.415 159.529 771.339 153.622L827.795 96.7147C829.753 94.5145 832.35 92.9817 835.222 92.3313C838.094 91.6808 841.098 91.9451 843.813 93.0872C846.528 94.2294 848.817 96.1921 850.36 98.7004C851.904 101.209 852.624 104.137 852.42 107.075V157.375C852.42 161.358 854.001 165.177 856.817 167.993C859.633 170.808 863.452 172.39 867.435 172.39H917.885C920.857 172.144 923.831 172.845 926.38 174.394C928.929 175.943 930.922 178.259 932.073 181.011C933.224 183.763 933.473 186.808 932.785 189.71C932.098 192.612 930.508 195.222 928.245 197.165L871.038 253.622Z" fill="#F3BE48"/>
</svg>
